<?xml version="1.0" encoding="utf-8"?>
<!-- Generator: Adobe Illustrator 23.0.3, SVG Export Plug-In . SVG Version: 6.00 Build 0)  -->
<svg version="1.1" id="Layer_1" xmlns="http://www.w3.org/2000/svg" xmlns:xlink="http://www.w3.org/1999/xlink" x="0px" y="0px"
	 viewBox="0 0 862.93 247.72" style="enable-background:new 0 0 862.93 247.72;" xml:space="preserve">
<style type="text/css">
	.st0{fill:#FFFFFF;stroke:#FFFFFF;stroke-miterlimit:10;}
	.st1{fill:url(#SVGID_1_);}
</style>
<g>
	<path class="st0" d="M145.47,151.41c0-37.74,26.3-65.94,60.99-65.94c20.58,0,35.45,8.77,44.21,24.39V88.52h23.25v125.4h-23.25
		v-21.34c-8.77,15.63-23.63,24.39-44.21,24.39C171.77,216.97,145.47,188.77,145.47,151.41z M251.43,151.41
		c0-26.68-16.01-45.36-40.4-45.36c-24.77,0-41.16,18.68-41.16,45.36c0,26.3,16.39,44.98,41.16,44.98
		C235.42,196.39,251.43,177.71,251.43,151.41z"/>
	<path class="st0" d="M313.55,88.52h23.63v125.4h-23.63V88.52z"/>
	<path class="st0" d="M309.35,59.04c0-9.15,7.63-16.01,16.01-16.01c8.39,0,16.01,6.86,16.01,16.01c0,9.14-7.63,16-16.01,16
		C316.98,75.04,309.35,68.18,309.35,59.04z"/>
	<path class="st0" d="M376.81,88.52h23.25v20.21c8.01-15.25,24.01-23.26,43.07-23.26c27.44,0,48.03,17.53,48.03,51.46v76.99h-23.25
		v-74.71c0-22.1-10.67-32.78-30.49-32.78c-22.49,0-37.36,14.1-37.36,38.12v69.37h-23.25V88.52z"/>
	<path class="st0" d="M672.55,188.77l16.77-11.82c7.63,12.58,20.2,20.2,36.98,20.2c16.01,0,25.15-6.48,25.15-16.77
		c0-11.06-8.77-15.63-30.49-21.73c-24.78-6.86-39.64-16.39-39.64-38.49c0-20.58,16.39-34.69,41.16-34.69
		c19.82,0,33.16,7.25,43.07,20.21l-15.63,12.95c-6.1-8-14.1-13.34-27.06-13.34c-12.58,0-19.82,6.1-19.82,14.11
		c0,11.05,8.01,14.1,27.44,19.05c26.68,6.86,43.45,17.92,43.45,40.78c0,23.63-17.91,37.74-47.64,37.74
		C702.28,216.97,683.99,206.3,672.55,188.77z"/>
</g>
<g>
	<polygon class="st0" points="26.17,29.28 26.17,213.92 49.42,213.92 49.42,159.99 105.07,213.75 136.32,213.75 72.29,151.48 
		136.32,88.32 105.13,88.32 49.42,142.1 49.42,29.28 	"/>
</g>
<radialGradient id="SVGID_1_" cx="589.2111" cy="82.0689" r="134.3153" gradientUnits="userSpaceOnUse">
	<stop  offset="0" style="stop-color:#C1D100"/>
	<stop  offset="0.1487" style="stop-color:#ACC80B"/>
	<stop  offset="0.4596" style="stop-color:#71B324"/>
	<stop  offset="0.85" style="stop-color:#009933"/>
</radialGradient>
<path class="st1" d="M520.96,148.35c0-37.69,30.56-68.25,68.26-68.25c37.7,0,68.25,30.56,68.25,68.25
	c0,37.7-30.55,68.26-68.25,68.26C551.52,216.61,520.96,186.05,520.96,148.35z"/>
<g>
	<g>
		<g>
			<path class="st0" d="M821.57,98.89c0.88,0,1.66,0.14,2.37,0.42c0.7,0.28,1.3,0.67,1.81,1.16c0.5,0.49,0.88,1.06,1.15,1.71
				c0.26,0.65,0.4,1.35,0.4,2.09c0,1.15-0.24,2.14-0.73,2.98c-0.48,0.84-1.27,1.48-2.37,1.92v0.05c0.53,0.15,0.97,0.37,1.31,0.67
				c0.35,0.3,0.63,0.66,0.85,1.07c0.22,0.41,0.38,0.86,0.48,1.35c0.1,0.49,0.17,0.99,0.21,1.48c0.02,0.31,0.04,0.68,0.05,1.09
				c0.02,0.42,0.05,0.85,0.1,1.29c0.05,0.44,0.12,0.85,0.22,1.24c0.1,0.39,0.25,0.73,0.45,1h-4.3c-0.24-0.62-0.38-1.36-0.44-2.22
				c-0.06-0.86-0.14-1.68-0.25-2.46c-0.15-1.02-0.46-1.77-0.93-2.24c-0.48-0.47-1.25-0.71-2.33-0.71h-4.3v7.64h-4.3V98.89H821.57z
				 M820.03,107.73c0.99,0,1.73-0.22,2.22-0.66c0.49-0.44,0.74-1.15,0.74-2.14c0-0.95-0.25-1.64-0.74-2.07
				c-0.49-0.43-1.23-0.64-2.22-0.64h-4.71v5.5H820.03z"/>
		</g>
		<path class="st0" d="M818.63,132.15c-12.95,0-23.49-10.54-23.49-23.49s10.54-23.49,23.49-23.49c12.95,0,23.49,10.54,23.49,23.49
			S831.58,132.15,818.63,132.15z M818.63,90.22c-10.17,0-18.45,8.28-18.45,18.45s8.28,18.45,18.45,18.45
			c10.17,0,18.45-8.28,18.45-18.45S828.8,90.22,818.63,90.22z"/>
	</g>
</g>
</svg>
